<?xml version="1.0" encoding="UTF-8"?>
<!DOCTYPE svg PUBLIC "-//W3C//DTD SVG 1.1//EN" "http://www.w3.org/Graphics/SVG/1.1/DTD/svg11.dtd">
<svg xmlns="http://www.w3.org/2000/svg" version="1.1" width="512px" height="512px" style="shape-rendering:geometricPrecision; text-rendering:geometricPrecision; image-rendering:optimizeQuality; fill-rule:evenodd; clip-rule:evenodd" xmlns:xlink="http://www.w3.org/1999/xlink">
<g><path style="opacity:0.994" fill="#ebeaec" d="M 255.5,41.5 C 255.5,42.1667 255.5,42.8333 255.5,43.5C 255.333,73.1685 255.5,102.835 256,132.5C 259.531,152.864 271.365,165.197 291.5,169.5C 321.995,170.498 352.662,170.831 383.5,170.5C 383.5,186.833 383.5,203.167 383.5,219.5C 324.5,203.002 275.667,218.336 237,265.5C 204.098,316.398 204.432,367.065 238,417.5C 260.661,446.251 290.161,463.251 326.5,468.5C 288.835,469.167 251.001,469.5 213,469.5C 172.806,469.646 132.639,469.146 92.5,468C 65.9733,461.473 49.4733,444.973 43,418.5C 41.3484,312.192 41.015,205.859 42,99.5C 45.0583,76.1967 56.8917,59.03 77.5,48C 82.3634,45.9344 87.3634,44.2678 92.5,43C 146.805,41.53 201.138,41.03 255.5,41.5 Z"/></g>
<g><path style="opacity:0.957" fill="#f75c69" d="M 255.5,41.5 C 298.883,83.8825 341.55,126.882 383.5,170.5C 352.662,170.831 321.995,170.498 291.5,169.5C 321.502,169.667 351.502,169.5 381.5,169C 339.632,126.965 297.632,85.1319 255.5,43.5C 255.5,42.8333 255.5,42.1667 255.5,41.5 Z"/></g>
<g><path style="opacity:1" fill="#f91228" d="M 255.5,43.5 C 297.632,85.1319 339.632,126.965 381.5,169C 351.502,169.5 321.502,169.667 291.5,169.5C 271.365,165.197 259.531,152.864 256,132.5C 255.5,102.835 255.333,73.1685 255.5,43.5 Z"/></g>
<g><path style="opacity:0.998" fill="#fa1328" d="M 383.5,219.5 C 437.777,241.469 466.443,281.802 469.5,340.5C 467.31,393.413 442.976,432.247 396.5,457C 374.209,467.215 350.875,471.049 326.5,468.5C 290.161,463.251 260.661,446.251 238,417.5C 204.432,367.065 204.098,316.398 237,265.5C 275.667,218.336 324.5,203.002 383.5,219.5 Z"/></g>
<g><path style="opacity:1" fill="#ebe9eb" d="M 304.5,289.5 C 310.929,288.698 316.929,289.864 322.5,293C 328.969,298.468 335.136,304.301 341,310.5C 347.946,302.548 355.779,295.714 364.5,290C 383.363,288.2 392.53,296.7 392,315.5C 391,317.833 390,320.167 389,322.5C 382.985,328.348 377.152,334.348 371.5,340.5C 376.485,345.985 381.652,351.319 387,356.5C 394.677,367.071 394.177,377.237 385.5,387C 375.833,394.333 366.167,394.333 356.5,387C 351.319,381.652 345.985,376.485 340.5,371.5C 334.348,377.152 328.348,382.985 322.5,389C 306.718,396.188 295.884,391.688 290,375.5C 288.481,368.816 289.814,362.816 294,357.5C 299.5,352 305,346.5 310.5,341C 302.161,334.003 295.327,325.836 290,316.5C 288.025,303.781 292.858,294.781 304.5,289.5 Z"/></g>
</svg>
