<?xml version="1.0" encoding="UTF-8"?>
<!DOCTYPE svg PUBLIC "-//W3C//DTD SVG 1.1//EN" "http://www.w3.org/Graphics/SVG/1.1/DTD/svg11.dtd">
<svg xmlns="http://www.w3.org/2000/svg" version="1.1" width="512px" height="512px" style="shape-rendering:geometricPrecision; text-rendering:geometricPrecision; image-rendering:optimizeQuality; fill-rule:evenodd; clip-rule:evenodd" xmlns:xlink="http://www.w3.org/1999/xlink">
<g><path style="opacity:1" fill="#e0dfdf" d="M 503.5,135.5 C 338.167,135.5 172.833,135.5 7.5,135.5C 7.33337,112.164 7.50003,88.831 8,65.5C 9.83333,61 13,57.8333 17.5,56C 176.167,55.3333 334.833,55.3333 493.5,56C 498,57.8333 501.167,61 503,65.5C 503.5,88.831 503.667,112.164 503.5,135.5 Z"/></g>
<g><path style="opacity:1" fill="#9e9e9e" d="M 44.5,87.5 C 80.8349,87.3333 117.168,87.5 153.5,88C 159.462,90.4048 160.962,94.5714 158,100.5C 156.829,101.893 155.329,102.727 153.5,103C 117.167,103.667 80.8333,103.667 44.5,103C 37.889,97.798 37.889,92.6314 44.5,87.5 Z"/></g>
<g><path style="opacity:1" fill="#f34a3c" d="M 460.5,87.5 C 466.925,86.5342 470.592,89.2009 471.5,95.5C 471.113,100.72 468.279,103.387 463,103.5C 456.894,102.296 454.561,98.6294 456,92.5C 457.025,90.313 458.525,88.6464 460.5,87.5 Z"/></g>
<g><path style="opacity:1" fill="#faf9f9" d="M 7.5,135.5 C 172.833,135.5 338.167,135.5 503.5,135.5C 503.667,238.834 503.5,342.167 503,445.5C 501.167,450 498,453.167 493.5,455C 334.833,455.667 176.167,455.667 17.5,455C 13,453.167 9.83333,450 8,445.5C 7.5,342.167 7.33334,238.834 7.5,135.5 Z"/></g>
<g><path style="opacity:1" fill="#f44336" d="M 138.5,207.5 C 217.224,207.009 295.891,207.509 374.5,209C 378.388,211.222 381.221,214.388 383,218.5C 383.985,265.225 383.652,311.892 382,358.5C 379.685,362.817 376.185,365.65 371.5,367C 293.085,367.994 214.752,367.661 136.5,366C 132.183,363.685 129.35,360.185 128,355.5C 127.333,309.833 127.333,264.167 128,218.5C 130.357,213.645 133.857,209.979 138.5,207.5 Z"/></g>
<g><path style="opacity:1" fill="#faf9f9" d="M 236.5,247.5 C 249.171,247.333 261.838,247.5 274.5,248C 276.667,248.833 278.167,250.333 279,252.5C 279.667,275.833 279.667,299.167 279,322.5C 278.167,324.667 276.667,326.167 274.5,327C 261.833,327.667 249.167,327.667 236.5,327C 234.333,326.167 232.833,324.667 232,322.5C 231.333,299.167 231.333,275.833 232,252.5C 233.025,250.313 234.525,248.646 236.5,247.5 Z"/></g>
<g><path style="opacity:1" fill="#faf8f8" d="M 172.5,247.5 C 177.28,246.641 180.78,248.308 183,252.5C 183.5,261.494 183.666,270.494 183.5,279.5C 188.833,279.5 194.167,279.5 199.5,279.5C 199.334,270.494 199.5,261.494 200,252.5C 202.226,248.139 205.726,246.639 210.5,248C 212.667,248.833 214.167,250.333 215,252.5C 215.667,275.5 215.667,298.5 215,321.5C 213.305,326.599 209.805,328.432 204.5,327C 202.333,326.167 200.833,324.667 200,322.5C 199.5,313.506 199.334,304.506 199.5,295.5C 190.494,295.666 181.494,295.5 172.5,295C 171.069,294.535 169.903,293.701 169,292.5C 167.371,279.261 167.038,265.928 168,252.5C 169.025,250.313 170.525,248.646 172.5,247.5 Z"/></g>
<g><path style="opacity:1" fill="#faf8f8" d="M 300.5,247.5 C 305.28,246.641 308.78,248.308 311,252.5C 311.5,261.494 311.666,270.494 311.5,279.5C 316.833,279.5 322.167,279.5 327.5,279.5C 327.334,270.494 327.5,261.494 328,252.5C 330.226,248.139 333.726,246.639 338.5,248C 340.667,248.833 342.167,250.333 343,252.5C 343.667,275.5 343.667,298.5 343,321.5C 341.305,326.599 337.805,328.432 332.5,327C 330.333,326.167 328.833,324.667 328,322.5C 327.5,313.506 327.334,304.506 327.5,295.5C 318.494,295.666 309.494,295.5 300.5,295C 299.069,294.535 297.903,293.701 297,292.5C 295.371,279.261 295.038,265.928 296,252.5C 297.025,250.313 298.525,248.646 300.5,247.5 Z"/></g>
<g><path style="opacity:1" fill="#f34335" d="M 247.5,263.5 C 252.833,263.5 258.167,263.5 263.5,263.5C 263.5,279.5 263.5,295.5 263.5,311.5C 258.167,311.5 252.833,311.5 247.5,311.5C 247.5,295.5 247.5,279.5 247.5,263.5 Z"/></g>
</svg>
